<svg width="36" height="36" viewBox="0 0 36 36" fill="none" xmlns="http://www.w3.org/2000/svg">
<g id="PrimeNG Icons v5.0.0/bell">
<g id="bell">
<path id="Vector" d="M30.795 24.375C30.66 24.375 27.63 23.835 27.63 15C27.63 8.76 24 4.875 18 4.875C12 4.875 8.37 8.76 8.37 15C8.37 24 5.235 24.375 5.25 24.375C4.95163 24.375 4.66548 24.4935 4.4545 24.7045C4.24353 24.9155 4.125 25.2016 4.125 25.5C4.125 25.7984 4.24353 26.0845 4.4545 26.2955C4.66548 26.5065 4.95163 26.625 5.25 26.625H12.495C12.7454 27.901 13.4313 29.0505 14.4355 29.8767C15.4396 30.7029 16.6996 31.1547 18 31.1547C19.3004 31.1547 20.5604 30.7029 21.5645 29.8767C22.5687 29.0505 23.2546 27.901 23.505 26.625H30.765C31.0634 26.625 31.3495 26.5065 31.5605 26.2955C31.7715 26.0845 31.89 25.7984 31.89 25.5C31.89 25.2016 31.7715 24.9155 31.5605 24.7045C31.3495 24.4935 31.0634 24.375 30.765 24.375H30.795ZM18 28.875C17.3044 28.8737 16.6264 28.6565 16.0595 28.2535C15.4926 27.8505 15.0648 27.2815 14.835 26.625H21.165C20.9352 27.2815 20.5074 27.8505 19.9405 28.2535C19.3736 28.6565 18.6956 28.8737 18 28.875ZM8.64 24.375C9.72 22.74 10.62 19.875 10.62 15C10.62 10.125 13.32 7.125 18 7.125C22.68 7.125 25.38 9.99 25.38 15C25.38 20.01 26.28 22.74 27.36 24.375H8.64Z" fill="#2A2A2A"/>
</g>
</g>
</svg>
