<svg xmlns="http://www.w3.org/2000/svg" width="36" height="36" viewBox="0 0 36 36" fill="none">
<path d="M21 26.625C20.8522 26.6257 20.7057 26.5969 20.5692 26.5402C20.4327 26.4835 20.3089 26.4002 20.205 26.295L12.705 18.795C12.4943 18.5841 12.376 18.2981 12.376 18C12.376 17.7019 12.4943 17.416 12.705 17.205L20.205 9.70501C20.4183 9.50629 20.7003 9.39811 20.9918 9.40325C21.2832 9.40839 21.5613 9.52646 21.7674 9.73258C21.9736 9.9387 22.0916 10.2168 22.0968 10.5082C22.1019 10.7997 21.9937 11.0818 21.795 11.295L15.09 18L21.795 24.705C22.0057 24.916 22.124 25.2019 22.124 25.5C22.124 25.7981 22.0057 26.0841 21.795 26.295C21.6911 26.4002 21.5673 26.4835 21.4308 26.5402C21.2943 26.5969 21.1478 26.6257 21 26.625Z" fill="#2A2A2A"/>
</svg>