<svg width="24" height="24" viewBox="0 0 24 24" fill="none" xmlns="http://www.w3.org/2000/svg">
<g id="PrimeNG Icons v5.0.0/times">
<g id="times">
<path id="Vector" d="M13.4259 12L17.8459 7.57996C17.9196 7.5113 17.9787 7.4285 18.0197 7.3365C18.0606 7.2445 18.0827 7.14518 18.0845 7.04448C18.0862 6.94378 18.0677 6.84375 18.03 6.75036C17.9923 6.65697 17.9361 6.57214 17.8649 6.50092C17.7937 6.4297 17.7089 6.37356 17.6155 6.33584C17.5221 6.29811 17.4221 6.27959 17.3214 6.28137C17.2206 6.28314 17.1213 6.30519 17.0293 6.34618C16.9373 6.38717 16.8545 6.44627 16.7859 6.51996L12.3659 10.94L7.94587 6.51996C7.8037 6.38748 7.61565 6.31535 7.42135 6.31878C7.22705 6.32221 7.04167 6.40092 6.90425 6.53834C6.76684 6.67575 6.68813 6.86113 6.6847 7.05544C6.68127 7.24974 6.75339 7.43778 6.88587 7.57996L11.3059 12L6.88587 16.42C6.74542 16.5606 6.66653 16.7512 6.66653 16.95C6.66653 17.1487 6.74542 17.3393 6.88587 17.48C7.0265 17.6204 7.21712 17.6993 7.41587 17.6993C7.61463 17.6993 7.80525 17.6204 7.94587 17.48L12.3659 13.06L16.7859 17.48C16.9265 17.6204 17.1171 17.6993 17.3159 17.6993C17.5146 17.6993 17.7052 17.6204 17.8459 17.48C17.9863 17.3393 18.0652 17.1487 18.0652 16.95C18.0652 16.7512 17.9863 16.5606 17.8459 16.42L13.4259 12Z" fill="#939393"/>
</g>
</g>
</svg>
