<svg width="24" height="24" viewBox="0 0 24 24" fill="none" xmlns="http://www.w3.org/2000/svg">
<g id="PrimeNG Icons v5.0.0/chevron-down">
<g id="chevron-down">
<path id="Vector" d="M12.0001 15.2502C11.9015 15.2506 11.8039 15.2314 11.7129 15.1936C11.6219 15.1558 11.5393 15.1003 11.4701 15.0302L6.47006 10.0302C6.37033 9.88426 6.32533 9.70784 6.34299 9.532C6.36065 9.35616 6.43983 9.1922 6.56657 9.06905C6.69331 8.94589 6.85947 8.87145 7.03575 8.85884C7.21202 8.84624 7.38708 8.89629 7.53006 9.00016L12.0001 13.4402L16.4701 9.00016C16.611 8.90877 16.7786 8.86735 16.9459 8.88254C17.1132 8.89772 17.2705 8.96864 17.3927 9.08392C17.5149 9.1992 17.5949 9.35217 17.6198 9.5183C17.6447 9.68444 17.6131 9.85412 17.5301 10.0002L12.5301 15.0002C12.4634 15.0757 12.382 15.1369 12.2909 15.1799C12.1997 15.2228 12.1008 15.2468 12.0001 15.2502Z" fill="#2A2A2A"/>
</g>
</g>
</svg>
