<svg width="23" height="24" viewBox="0 0 23 24" fill="none" xmlns="http://www.w3.org/2000/svg">
<path d="M22.4122 12C22.4122 18.3831 17.5783 23.5 11.6841 23.5C5.78997 23.5 0.956055 18.3831 0.956055 12C0.956055 5.61689 5.78997 0.5 11.6841 0.5C17.5783 0.5 22.4122 5.61689 22.4122 12Z" fill="white" stroke="#DFDFDF"/>
<g clip-path="url(#clip0_81_1129)">
<path d="M20.0718 12.2103C20.0718 11.5888 20.0247 10.964 19.9241 10.3525H11.855V13.8733H16.4758C16.284 15.0088 15.6679 16.0133 14.7658 16.6516V18.936H17.5225C19.1414 17.3436 20.0718 14.992 20.0718 12.2103Z" fill="#4285F4"/>
<path d="M11.8552 21.1433C14.1624 21.1433 16.1082 20.3337 17.5258 18.9361L14.7691 16.6517C14.0021 17.2094 13.0119 17.5252 11.8583 17.5252C9.6265 17.5252 7.73418 15.916 7.05521 13.7524H4.21045V16.1074C5.66269 19.1948 8.62062 21.1433 11.8552 21.1433V21.1433Z" fill="#34A853"/>
<path d="M7.05192 13.7526C6.69358 12.6171 6.69358 11.3875 7.05192 10.252V7.89697H4.2103C2.99696 10.4804 2.99696 13.5241 4.2103 16.1076L7.05192 13.7526V13.7526Z" fill="#FBBC04"/>
<path d="M11.8552 6.47572C13.0748 6.45557 14.2536 6.94605 15.1369 7.84639L17.5793 5.23607C16.0327 3.68398 13.9801 2.83067 11.8552 2.85755C8.62062 2.85755 5.66269 4.80606 4.21045 7.89679L7.05207 10.2518C7.7279 8.08492 9.62336 6.47572 11.8552 6.47572V6.47572Z" fill="#EA4335"/>
</g>
<defs>
<clipPath id="clip0_81_1129">
<rect width="17.1094" height="18.2857" fill="white" transform="translate(3.12939 2.85693)"/>
</clipPath>
</defs>
</svg>
