<svg width="24" height="24" viewBox="0 0 24 24" fill="none" xmlns="http://www.w3.org/2000/svg">
<g id="Frame 43">
<path id="Vector" d="M10.6608 16.9266C10.5623 16.9271 10.4646 16.9079 10.3736 16.8701C10.2826 16.8323 10.2001 16.7767 10.1308 16.7066L5.13082 11.7066C5.0311 11.5607 4.9861 11.3843 5.00375 11.2085C5.02141 11.0326 5.10059 10.8687 5.22734 10.7455C5.35408 10.6224 5.52024 10.5479 5.69651 10.5353C5.87279 10.5227 6.04785 10.5728 6.19082 10.6766L10.6608 15.1166L18.3347 8.12055C18.4757 8.02916 18.6432 7.98774 18.8105 8.00293C18.9779 8.01812 19.1352 8.08903 19.2574 8.20431C19.3796 8.31959 19.4596 8.47256 19.4845 8.63869C19.5094 8.80483 19.4778 8.97452 19.3947 9.12055L11.1908 16.6766C11.1242 16.7522 11.0428 16.8133 10.9516 16.8563C10.8605 16.8993 10.7615 16.9232 10.6608 16.9266Z" fill="#1AE565"/>
</g>
</svg>
