<svg xmlns="http://www.w3.org/2000/svg" width="36" height="36"  fill="none">
<path d="M28.5 19.125H7.5C7.20163 19.125 6.91548 19.0065 6.7045 18.7955C6.49353 18.5845 6.375 18.2984 6.375 18C6.375 17.7016 6.49353 17.4155 6.7045 17.2045C6.91548 16.9935 7.20163 16.875 7.5 16.875H28.5C28.7984 16.875 29.0845 16.9935 29.2955 17.2045C29.5065 17.4155 29.625 17.7016 29.625 18C29.625 18.2984 29.5065 18.5845 29.2955 18.7955C29.0845 19.0065 28.7984 19.125 28.5 19.125Z" fill="#2A2A2A"/>
<path d="M28.5 12.375H7.5C7.20163 12.375 6.91548 12.2565 6.7045 12.0455C6.49353 11.8345 6.375 11.5484 6.375 11.25C6.375 10.9516 6.49353 10.6655 6.7045 10.4545C6.91548 10.2435 7.20163 10.125 7.5 10.125H28.5C28.7984 10.125 29.0845 10.2435 29.2955 10.4545C29.5065 10.6655 29.625 10.9516 29.625 11.25C29.625 11.5484 29.5065 11.8345 29.2955 12.0455C29.0845 12.2565 28.7984 12.375 28.5 12.375Z" fill="#2A2A2A"/>
<path d="M28.5 25.875H7.5C7.20163 25.875 6.91548 25.7565 6.7045 25.5455C6.49353 25.3345 6.375 25.0484 6.375 24.75C6.375 24.4516 6.49353 24.1655 6.7045 23.9545C6.91548 23.7435 7.20163 23.625 7.5 23.625H28.5C28.7984 23.625 29.0845 23.7435 29.2955 23.9545C29.5065 24.1655 29.625 24.4516 29.625 24.75C29.625 25.0484 29.5065 25.3345 29.2955 25.5455C29.0845 25.7565 28.7984 25.875 28.5 25.875Z" fill="#2A2A2A"/>
</svg>