<svg width="160" height="129" viewBox="0 0 160 129" fill="none" xmlns="http://www.w3.org/2000/svg">
<g id="Group 215">
<g id="Group">
<g id="Group_2">
<path id="Vector" d="M117.459 33.242C117.239 51.092 115.899 66.542 107.829 76.552C101.699 84.152 91.6791 88.622 75.2991 88.622C59.7791 88.622 49.9491 84.152 43.7291 76.552C33.8991 64.552 32.8091 44.732 32.8091 22.312C32.8091 34.252 51.9691 43.932 75.2991 43.932C91.0591 43.932 104.799 39.512 112.049 32.952L109.869 37.512C109.869 37.512 116.779 42.172 117.459 33.242Z" fill="#1AE565"/>
<path id="Vector_2" d="M117.509 22.4521C117.509 26.1121 117.509 29.6921 117.469 33.1921C117.469 33.2121 117.469 33.2221 117.459 33.2421C116.779 42.1721 109.869 37.5121 109.869 37.5121L112.049 32.9521C115.489 29.8521 117.459 26.2721 117.509 22.4521Z" fill="#1AE565"/>
<path id="Vector_3" d="M106.249 22.3419C106.249 29.3319 92.3889 34.9919 75.2989 34.9919C58.2089 34.9919 44.3389 29.3319 44.3389 22.3419C44.3389 15.3519 58.1989 9.69189 75.2989 9.69189C92.3989 9.69189 106.249 15.3519 106.249 22.3419Z" fill="#454545"/>
<path id="Vector_4" d="M111.359 13.7021C111.359 13.7021 102.859 3.92211 76.1389 3.02211C62.3489 2.56211 36.9289 9.29211 35.7889 22.1421C34.6489 34.9921 57.0189 42.9221 76.4189 42.9921C92.4789 43.0521 103.979 38.5821 111.989 30.5621C114.179 28.3721 116.849 22.7921 120.289 18.5821L119.419 19.5921C123.209 14.8821 129.019 11.8721 135.529 11.8721C146.949 11.8721 156.199 21.1221 156.199 32.5421C156.199 43.9621 146.949 53.2121 135.529 53.2121C128.629 53.2121 123.389 48.5621 123.389 48.5621" stroke="#1AE565" stroke-width="6" stroke-miterlimit="10" stroke-linecap="round"/>
<path id="Vector_5" d="M120.639 22.312C120.639 22.312 118.129 24.192 117.469 33.192C117.469 33.212 117.469 33.222 117.459 33.242C116.779 42.172 109.869 37.512 109.869 37.512L112.049 32.952L115.789 25.162L117.509 21.562L118.019 21.682L120.639 22.312Z" fill="#1AE565"/>
</g>
<path id="Vector_6" d="M153.179 113.492V118.282C153.179 124.032 147.679 128.742 140.959 128.742H3.88931C3.58931 128.742 3.29931 128.742 3.00931 128.712C-1.23069 128.452 -0.87069 122.972 3.36931 122.972H101.149C104.199 122.972 106.699 120.832 106.699 118.222V113.552C106.699 110.932 104.199 108.802 101.149 108.802H3.36931C-0.88069 108.802 -1.23069 103.322 3.00931 103.062C3.29931 103.042 3.59931 103.032 3.88931 103.032H140.959C147.679 103.032 153.179 107.742 153.179 113.492Z" fill="#1AE565"/>
<path id="Vector_7" d="M128.469 98.5721C128.249 98.5921 128.039 98.6021 127.819 98.6021H22.0495C17.0595 98.6021 12.9795 93.8921 12.9795 88.1421V83.3521C12.9795 77.5921 17.0595 72.8921 22.0495 72.8921H35.9895C36.8095 74.9321 38.1295 76.8721 39.8695 78.6621H38.6595C36.3895 78.6621 34.5395 80.7921 34.5395 83.4121V88.0821C34.5395 90.6921 36.3895 92.8321 38.6595 92.8321H128.199C131.359 92.8321 131.619 98.3121 128.469 98.5721Z" fill="#1AE565"/>
<path id="Vector_8" d="M128.199 78.6621H110.719C112.469 76.8721 113.789 74.9321 114.619 72.8921H127.819C128.039 72.8921 128.249 72.9021 128.469 72.9121C131.619 73.1821 131.349 78.6621 128.199 78.6621Z" fill="#1AE565"/>
<path id="Vector_9" d="M139.579 126.482C139.399 126.542 139.199 126.572 138.989 126.572C138.929 126.572 138.869 126.572 138.809 126.562C139.069 126.562 139.329 126.522 139.579 126.482Z" fill="#1AE565"/>
</g>
<line id="Line 111" x1="7.5" y1="112.5" x2="96.5" y2="112.5" stroke="#C9C9C9" stroke-width="3" stroke-linecap="round"/>
<line id="Line 112" x1="7.5" y1="118.5" x2="96.5" y2="118.5" stroke="#C9C9C9" stroke-width="3" stroke-linecap="round"/>
<path id="Subtract" fill-rule="evenodd" clip-rule="evenodd" d="M41.4879 81.2422H41C40.1716 81.2422 39.5 81.9138 39.5 82.7422C39.5 83.5706 40.1716 84.2422 41 84.2422H45.371C43.9442 83.3052 42.6447 82.3022 41.4879 81.2422ZM106.627 84.2422H123.499C124.327 84.2422 124.999 83.5706 124.999 82.7422C124.999 81.9138 124.327 81.2422 123.499 81.2422H110.51C109.353 82.3022 108.054 83.3052 106.627 84.2422Z" fill="#C9C9C9"/>
<path id="Subtract_2" fill-rule="evenodd" clip-rule="evenodd" d="M50.8691 87.2422H41C40.1716 87.2422 39.5 87.9138 39.5 88.7422C39.5 89.5706 40.1716 90.2422 41 90.2422H59.5242C56.4155 89.4487 53.5111 88.4375 50.8691 87.2422ZM92.4738 90.2422H123.499C124.327 90.2422 124.999 89.5706 124.999 88.7422C124.999 87.9138 124.327 87.2422 123.499 87.2422H101.129C98.487 88.4375 95.5826 89.4487 92.4738 90.2422Z" fill="#C9C9C9"/>
</g>
</svg>
