<svg width="236" height="178" viewBox="0 0 236 178" fill="none" xmlns="http://www.w3.org/2000/svg">
<g id="Group 24">
<path id="Rectangle 6" d="M0.99984 40.8346C0.99984 40.8346 0.298265 87.3953 63.794 87.3953C127.29 87.3953 127.29 40.8346 127.29 40.8346V131.439C127.29 131.439 127.29 178 63.794 178C0.29826 178 0.99984 131.439 0.99984 131.439V40.8346Z" fill="#1AE565"/>
<path id="Vector 1" d="M124.133 59.9274C125.342 44.91 137.982 14.875 178.867 14.875C219.752 14.875 232.181 42.9156 232.181 59.9274C232.181 76.9393 222.654 101.524 178.867 101.524" stroke="#1AE565" stroke-width="6.55367"/>
<path id="Vector 2" d="M127.29 45.5966C125.911 60.6141 111.507 90.649 64.9141 90.649C18.3213 90.649 4.15655 62.6084 4.15655 45.5966C4.15656 28.5848 15.0138 3.99989 64.9142 3.99989" stroke="#1AE565" stroke-width="6.55367"/>
</g>
</svg>
