<svg width="24" height="24" viewBox="0 0 24 24" fill="none" xmlns="http://www.w3.org/2000/svg">
<g id="Icons/Basic/Search">
<path id="search" fill-rule="evenodd" clip-rule="evenodd" d="M4.35001 10.8001C4.35001 7.23786 7.23777 4.3501 10.8 4.3501C14.3622 4.3501 17.25 7.23786 17.25 10.8001C17.25 14.3623 14.3622 17.2501 10.8 17.2501C7.23777 17.2501 4.35001 14.3623 4.35001 10.8001ZM10.8 2.8501C6.40934 2.8501 2.85001 6.40943 2.85001 10.8001C2.85001 15.1908 6.40934 18.7501 10.8 18.7501C12.7253 18.7501 14.4907 18.0657 15.8663 16.927L20.1691 21.2299C20.462 21.5228 20.9369 21.5228 21.2298 21.2299C21.5227 20.937 21.5227 20.4621 21.2298 20.1692L16.9269 15.8663C18.0656 14.4908 18.75 12.7254 18.75 10.8001C18.75 6.40943 15.1907 2.8501 10.8 2.8501Z" fill="#939393"/>
</g>
</svg>
