<svg width="41" height="24" viewBox="0 0 41 24" fill="none" xmlns="http://www.w3.org/2000/svg">
<g id="_?&#235;&#141;&#137;&#236;&#148;&#160;??1" clip-path="url(#clip0_752_992)">
<path id="Vector" d="M40.9789 12.7841C40.6349 18.6702 35.8743 23.4012 30.1462 23.5649C28.5637 23.6092 27.0499 23.3171 25.6738 22.7506C24.4482 22.2461 24.1127 20.6263 25.0459 19.6659C25.605 19.0862 26.4436 18.9357 27.1832 19.2234C28.2884 19.6571 29.5226 19.8253 30.8128 19.6571C34.1499 19.2189 36.8247 16.4219 37.2118 12.9832C37.7321 8.34959 34.2273 4.41521 29.828 4.41521C27.996 4.41521 26.207 5.14986 24.8481 6.41117C23.3817 7.76984 22.7237 9.69056 22.3926 11.6467C22.2249 12.6203 22.2249 13.6515 22.0098 14.6119C21.7733 15.6784 21.3992 16.7716 20.8874 17.7364C20.767 17.9621 20.638 18.1878 20.4961 18.4046C19.6919 19.6615 18.6512 20.7458 17.4428 21.5955C15.5377 22.9276 13.2069 23.6667 10.7127 23.5649C5.04047 23.3259 0.361638 18.6126 0.0219061 12.7752C-0.36943 6.10137 4.77815 0.569336 11.1771 0.569336C12.8328 0.569336 14.4067 0.941089 15.8173 1.60493C16.9397 2.13158 17.1848 3.6717 16.3118 4.57011C15.7098 5.18969 14.8153 5.33131 14.0283 4.99939C12.9102 4.52142 11.6502 4.31342 10.3386 4.46389C6.74343 4.87105 3.91377 7.98669 3.74605 11.7086C3.55253 16.0989 6.94985 19.719 11.1728 19.719C11.6545 19.719 12.1361 19.6704 12.6092 19.5774C14.2906 19.2366 15.8302 18.2896 16.9182 16.9265C18.0621 15.4926 18.3932 13.7444 18.6469 11.9609C18.8577 10.4562 19.0211 8.95148 19.5887 7.53085C20.3327 5.66766 21.5841 4.03903 23.158 2.84411C25.0201 1.41463 27.3251 0.569336 29.8237 0.569336C36.2227 0.569336 41.3659 6.1058 40.9746 12.7841H40.9789Z" fill="#1AE565"/>
</g>
<defs>
<clipPath id="clip0_752_992">
<rect width="41" height="23" fill="white" transform="translate(0 0.569336)"/>
</clipPath>
</defs>
</svg>
